<mxfile host="Electron" modified="2024-06-03T20:23:22.184Z" agent="Mozilla/5.0 (Windows NT 10.0; Win64; x64) AppleWebKit/537.36 (KHTML, like Gecko) draw.io/24.4.8 Chrome/124.0.6367.207 Electron/30.0.6 Safari/537.36" etag="TsWRdZJHPn8Ze8RQjIZf" version="24.4.8" type="device">
  <diagram name="Страница — 1" id="VTfXoaagzKMwXtQl3LAC">
    <mxGraphModel dx="1434" dy="836" grid="1" gridSize="10" guides="1" tooltips="1" connect="1" arrows="1" fold="1" page="1" pageScale="1" pageWidth="827" pageHeight="1169" math="0" shadow="0">
      <root>
        <mxCell id="0" />
        <mxCell id="1" parent="0" />
        <mxCell id="fAOV3gyaSB3jY0Dtl-A5-5" value="estore-management Spring Boot" style="shape=module;align=left;spacingLeft=20;align=center;verticalAlign=top;whiteSpace=wrap;html=1;" vertex="1" parent="1">
          <mxGeometry x="600" y="220" width="160" height="70" as="geometry" />
        </mxCell>
        <mxCell id="fAOV3gyaSB3jY0Dtl-A5-4" value="estore-management Spring Boot" style="shape=module;align=left;spacingLeft=20;align=center;verticalAlign=top;whiteSpace=wrap;html=1;" vertex="1" parent="1">
          <mxGeometry x="590" y="210" width="160" height="70" as="geometry" />
        </mxCell>
        <mxCell id="fAOV3gyaSB3jY0Dtl-A5-1" value="estore-management Spring Boot" style="shape=module;align=left;spacingLeft=20;align=center;verticalAlign=top;whiteSpace=wrap;html=1;" vertex="1" parent="1">
          <mxGeometry x="580" y="200" width="160" height="70" as="geometry" />
        </mxCell>
        <mxCell id="fAOV3gyaSB3jY0Dtl-A5-2" value="Netflix Eureka Discovery sevice" style="shape=module;align=left;spacingLeft=20;align=center;verticalAlign=top;whiteSpace=wrap;html=1;" vertex="1" parent="1">
          <mxGeometry x="380" y="80" width="140" height="70" as="geometry" />
        </mxCell>
        <mxCell id="fAOV3gyaSB3jY0Dtl-A5-3" value="Spring Gateway" style="shape=module;align=left;spacingLeft=20;align=center;verticalAlign=top;whiteSpace=wrap;html=1;" vertex="1" parent="1">
          <mxGeometry x="380" y="200" width="140" height="70" as="geometry" />
        </mxCell>
        <mxCell id="fAOV3gyaSB3jY0Dtl-A5-6" value="escard-frontend Angular" style="shape=module;align=left;spacingLeft=20;align=center;verticalAlign=top;whiteSpace=wrap;html=1;" vertex="1" parent="1">
          <mxGeometry x="150" y="140" width="140" height="70" as="geometry" />
        </mxCell>
        <mxCell id="fAOV3gyaSB3jY0Dtl-A5-7" value="esmanage-frontend Angular" style="shape=module;align=left;spacingLeft=20;align=center;verticalAlign=top;whiteSpace=wrap;html=1;" vertex="1" parent="1">
          <mxGeometry x="150" y="240" width="140" height="70" as="geometry" />
        </mxCell>
        <mxCell id="fAOV3gyaSB3jY0Dtl-A5-8" value="" style="endArrow=classic;html=1;rounded=0;exitX=1;exitY=0.5;exitDx=0;exitDy=0;entryX=0;entryY=0;entryDx=0;entryDy=15;entryPerimeter=0;edgeStyle=orthogonalEdgeStyle;" edge="1" parent="1" source="fAOV3gyaSB3jY0Dtl-A5-6" target="fAOV3gyaSB3jY0Dtl-A5-3">
          <mxGeometry width="50" height="50" relative="1" as="geometry">
            <mxPoint x="350" y="400" as="sourcePoint" />
            <mxPoint x="400" y="350" as="targetPoint" />
          </mxGeometry>
        </mxCell>
        <mxCell id="fAOV3gyaSB3jY0Dtl-A5-9" value="" style="endArrow=classic;html=1;rounded=0;exitX=1;exitY=0.5;exitDx=0;exitDy=0;entryX=0;entryY=0;entryDx=0;entryDy=35;entryPerimeter=0;edgeStyle=orthogonalEdgeStyle;" edge="1" parent="1" source="fAOV3gyaSB3jY0Dtl-A5-7" target="fAOV3gyaSB3jY0Dtl-A5-3">
          <mxGeometry width="50" height="50" relative="1" as="geometry">
            <mxPoint x="340" y="370" as="sourcePoint" />
            <mxPoint x="390" y="320" as="targetPoint" />
          </mxGeometry>
        </mxCell>
        <mxCell id="fAOV3gyaSB3jY0Dtl-A5-10" value="" style="endArrow=classic;html=1;rounded=0;exitX=0.5;exitY=0;exitDx=0;exitDy=0;" edge="1" parent="1" source="fAOV3gyaSB3jY0Dtl-A5-3" target="fAOV3gyaSB3jY0Dtl-A5-2">
          <mxGeometry width="50" height="50" relative="1" as="geometry">
            <mxPoint x="480" y="400" as="sourcePoint" />
            <mxPoint x="530" y="350" as="targetPoint" />
          </mxGeometry>
        </mxCell>
        <mxCell id="fAOV3gyaSB3jY0Dtl-A5-11" value="" style="endArrow=classic;html=1;rounded=0;exitX=0.5;exitY=0;exitDx=0;exitDy=0;entryX=1;entryY=0.5;entryDx=0;entryDy=0;edgeStyle=orthogonalEdgeStyle;" edge="1" parent="1" source="fAOV3gyaSB3jY0Dtl-A5-1" target="fAOV3gyaSB3jY0Dtl-A5-2">
          <mxGeometry width="50" height="50" relative="1" as="geometry">
            <mxPoint x="580" y="450" as="sourcePoint" />
            <mxPoint x="630" y="400" as="targetPoint" />
          </mxGeometry>
        </mxCell>
        <mxCell id="fAOV3gyaSB3jY0Dtl-A5-12" value="" style="endArrow=classic;html=1;rounded=0;exitX=1;exitY=0.5;exitDx=0;exitDy=0;entryX=0;entryY=0;entryDx=0;entryDy=15;entryPerimeter=0;edgeStyle=orthogonalEdgeStyle;" edge="1" parent="1" source="fAOV3gyaSB3jY0Dtl-A5-3" target="fAOV3gyaSB3jY0Dtl-A5-1">
          <mxGeometry width="50" height="50" relative="1" as="geometry">
            <mxPoint x="540" y="420" as="sourcePoint" />
            <mxPoint x="590" y="370" as="targetPoint" />
          </mxGeometry>
        </mxCell>
        <mxCell id="fAOV3gyaSB3jY0Dtl-A5-13" value="" style="strokeWidth=2;html=1;shape=mxgraph.flowchart.database;whiteSpace=wrap;" vertex="1" parent="1">
          <mxGeometry x="650" y="330" width="60" height="60" as="geometry" />
        </mxCell>
        <mxCell id="fAOV3gyaSB3jY0Dtl-A5-14" value="" style="shape=curlyBracket;whiteSpace=wrap;html=1;rounded=1;flipH=1;labelPosition=right;verticalLabelPosition=middle;align=left;verticalAlign=middle;rotation=90;" vertex="1" parent="1">
          <mxGeometry x="665" y="225" width="20" height="170" as="geometry" />
        </mxCell>
        <mxCell id="fAOV3gyaSB3jY0Dtl-A5-15" value="PostgreSQL&amp;nbsp;&lt;div&gt;Database&lt;/div&gt;" style="text;html=1;align=center;verticalAlign=middle;resizable=0;points=[];autosize=1;strokeColor=none;fillColor=none;" vertex="1" parent="1">
          <mxGeometry x="560" y="340" width="90" height="40" as="geometry" />
        </mxCell>
      </root>
    </mxGraphModel>
  </diagram>
</mxfile>
